<?xml version="1.0" standalone="no"?>
<!DOCTYPE svg PUBLIC "-//W3C//DTD SVG 20010904//EN"
 "http://www.w3.org/TR/2001/REC-SVG-20010904/DTD/svg10.dtd">
<svg version="1.0" xmlns="http://www.w3.org/2000/svg"
 width="512.000000pt" height="512.000000pt" viewBox="0 0 512.000000 512.000000"
 preserveAspectRatio="xMidYMid meet">
<metadata>
Created by potrace 1.14, written by Peter Selinger 2001-2017
</metadata>
<g transform="translate(0.000000,512.000000) scale(0.100000,-0.100000)"
fill="#000000" stroke="none">
<path d="M1888 4535 c-64 -26 -168 -100 -308 -221 -123 -106 -264 -257 -330
-354 -13 -19 -27 -37 -30 -40 -9 -9 -110 -161 -110 -166 0 -3 -8 -18 -18 -32
-31 -44 -88 -153 -117 -222 -15 -36 -33 -78 -40 -95 -21 -49 -37 -94 -37 -102
0 -4 -5 -17 -10 -27 -24 -45 -94 -330 -103 -424 -3 -24 -9 -71 -14 -105 -13
-84 -12 -427 0 -507 6 -36 12 -78 13 -95 20 -207 156 -615 271 -808 19 -32 35
-61 35 -63 0 -8 120 -185 178 -264 82 -110 330 -352 457 -447 139 -104 190
-125 311 -125 85 0 97 2 165 36 66 32 98 60 303 264 l228 229 92 -23 c196 -50
465 -54 679 -10 239 50 493 170 665 315 81 68 107 119 107 211 0 63 -4 82 -27
120 -39 66 -464 484 -512 504 -23 9 -67 16 -109 16 -65 0 -76 -3 -147 -45
-119 -70 -177 -87 -300 -88 -110 -1 -151 8 -235 49 -136 66 -237 186 -286 339
-20 60 -17 239 5 300 69 196 213 325 416 371 134 30 274 -1 403 -89 38 -26 78
-47 90 -48 78 -3 127 2 162 16 49 21 473 438 513 505 23 38 27 57 27 120 0 64
-4 82 -27 121 -30 51 -86 102 -193 173 -75 51 -282 156 -306 156 -8 0 -19 4
-25 9 -13 13 -110 41 -229 65 -102 21 -238 36 -330 36 -120 -1 -396 -37 -428
-57 -6 -4 -101 86 -231 218 -122 123 -230 231 -241 239 -11 8 -47 27 -79 42
-81 36 -213 38 -298 3z m209 -226 c27 -10 383 -355 383 -371 0 -4 -28 -22 -62
-39 -333 -168 -620 -500 -745 -864 -68 -197 -88 -318 -88 -535 0 -207 15 -314
71 -492 29 -93 125 -296 176 -373 147 -222 354 -416 566 -532 l84 -46 -168
-169 c-93 -93 -182 -179 -198 -190 -38 -28 -119 -29 -161 -2 -54 34 -178 131
-251 196 -263 235 -483 579 -601 938 -13 41 -26 86 -29 98 -3 13 -11 49 -19
79 -39 149 -49 247 -49 483 -1 241 7 323 46 485 11 44 21 89 23 99 8 34 46
150 56 168 5 10 9 22 9 28 0 14 53 130 111 244 100 194 222 357 400 533 68 67
151 142 184 167 33 24 72 54 87 66 59 46 110 54 175 29z m1234 -469 c30 -5 68
-12 84 -14 114 -13 307 -86 449 -168 88 -50 99 -58 155 -105 l26 -22 -207
-208 -207 -207 -349 354 c-193 195 -349 356 -348 357 17 20 310 29 397 13z
m-423 -323 c133 -134 239 -246 236 -250 -4 -4 -30 -7 -58 -7 -164 0 -372 -112
-507 -273 -64 -76 -139 -220 -153 -292 -2 -11 -9 -38 -14 -60 -15 -55 -8 -258
11 -325 43 -155 98 -250 207 -360 39 -38 96 -86 128 -106 102 -66 250 -116
340 -115 23 0 42 -3 42 -7 0 -4 -107 -114 -238 -245 l-237 -237 -84 40 c-217
105 -386 253 -539 472 -62 89 -160 317 -187 433 -56 245 -45 505 32 735 64
193 166 362 308 509 112 117 196 184 305 246 47 27 99 56 115 66 17 9 35 18
40 18 6 1 120 -108 253 -242z m937 -1858 l200 -200 -40 -35 c-22 -19 -53 -42
-70 -51 -16 -9 -32 -19 -35 -23 -6 -9 -213 -111 -260 -128 -19 -7 -46 -15 -59
-18 -13 -3 -31 -9 -40 -13 -9 -5 -19 -9 -24 -9 -4 0 -31 -5 -60 -11 -134 -26
-179 -31 -290 -31 -66 0 -149 5 -185 11 l-65 12 349 348 c192 192 356 349 364
349 9 0 105 -90 215 -201z"/>
</g>
</svg>
